<svg viewBox="0 0 200 200" xmlns="http://www.w3.org/2000/svg">
  <polygon points="100,8 180,54 180,146 100,192 20,146 20,54" fill="#D6462A"/>
  <polygon points="100,22 168,61 168,139 100,178 32,139 32,61" fill="#17181C"/>
  <g transform="translate(100,100) rotate(-45)"><polygon points="0,-66 11,-46 11,58 -11,58 -11,-46" fill="#D6462A"/></g>
  <g transform="translate(100,100) rotate(45)"><polygon points="0,-66 5,-46 5,40 -5,40 -5,-46" fill="#D6462A"/><rect x="-18" y="40" width="36" height="8" fill="#D6462A"/></g>
  <polygon points="100,85 115,100 100,115 85,100" fill="#17181C"/>
</svg>
